<svg width="128" height="128" viewBox="0 0 128 128" fill="none" xmlns="http://www.w3.org/2000/svg">
<mask id="path-1-inside-1_7_99" fill="white">
<path d="M53 20H57.9766C57.9766 20.7909 58.1329 21.574 58.4355 22.3047C58.7382 23.0355 59.1819 23.6995 59.7412 24.2588C60.3005 24.8181 60.9645 25.2618 61.6953 25.5645C62.426 25.8671 63.2091 26.0234 64 26.0234C64.7909 26.0234 65.574 25.8671 66.3047 25.5645C67.0355 25.2618 67.6995 24.8181 68.2588 24.2588C68.8181 23.6995 69.2618 23.0355 69.5645 22.3047C69.8293 21.6652 69.9817 20.9857 70.0156 20.2959L70.0234 20H75V16H78V20C78 21.8384 77.6381 23.6589 76.9346 25.3574C76.231 27.056 75.1994 28.5994 73.8994 29.8994C72.5994 31.1994 71.056 32.231 69.3574 32.9346C67.6589 33.6381 65.8384 34 64 34C62.1616 34 60.3411 33.6381 58.6426 32.9346C56.944 32.231 55.4006 31.1994 54.1006 29.8994C52.8006 28.5994 51.769 27.056 51.0654 25.3574C50.3619 23.6589 50 21.8384 50 20L50 16H53V20Z"/>
</mask>
<path d="M53 20H45V28H53V20ZM57.9766 20H65.9766V12H57.9766V20ZM58.4355 22.3047L51.0444 25.3659L51.0445 25.3662L58.4355 22.3047ZM59.7412 24.2588L54.0844 29.9156L54.0844 29.9156L59.7412 24.2588ZM61.6953 25.5645L58.6338 32.9555L58.6341 32.9556L61.6953 25.5645ZM64 26.0234V34.0234V34.0234V26.0234ZM66.3047 25.5645L69.3659 32.9556L69.3662 32.9555L66.3047 25.5645ZM69.5645 22.3047L76.9555 25.3662L76.9556 25.3659L69.5645 22.3047ZM70.0156 20.2959L78.006 20.6889L78.0104 20.598L78.0128 20.507L70.0156 20.2959ZM70.0234 20V12H62.2319L62.0262 19.7889L70.0234 20ZM75 20V28H83V20H75ZM75 16V8H67V16H75ZM78 16H86V8H78V16ZM78 20H70H78ZM76.9346 25.3574L84.3256 28.4189L84.3257 28.4188L76.9346 25.3574ZM69.3574 32.9346L72.4188 40.3257L72.4189 40.3256L69.3574 32.9346ZM64 34V42V42V34ZM58.6426 32.9346L55.5811 40.3256L55.5812 40.3257L58.6426 32.9346ZM54.1006 29.8994L48.4437 35.5563H48.4437L54.1006 29.8994ZM51.0654 25.3574L43.6743 28.4188L43.6744 28.4189L51.0654 25.3574ZM50 20H58H50ZM50 16V8H42V16L50 16ZM53 16H61V8H53V16ZM53 20V28H57.9766V20V12H53V20ZM57.9766 20H49.9766C49.9766 21.8454 50.3413 23.6684 51.0444 25.3659L58.4355 22.3047L65.8267 19.2434C65.9245 19.4796 65.9766 19.7364 65.9766 20H57.9766ZM58.4355 22.3047L51.0445 25.3662C51.7492 27.0674 52.7821 28.6134 54.0844 29.9156L59.7412 24.2588L65.3981 18.6019C65.5817 18.7856 65.7273 19.0035 65.8266 19.2432L58.4355 22.3047ZM59.7412 24.2588L54.0844 29.9156C55.3866 31.2179 56.9326 32.2508 58.6338 32.9555L61.6953 25.5645L64.7568 18.1734C64.9965 18.2727 65.2144 18.4183 65.3981 18.6019L59.7412 24.2588ZM61.6953 25.5645L58.6341 32.9556C60.3316 33.6587 62.1546 34.0234 64 34.0234V26.0234V18.0234C64.2636 18.0234 64.5204 18.0755 64.7566 18.1733L61.6953 25.5645ZM64 26.0234V34.0234C65.8454 34.0234 67.6684 33.6587 69.3659 32.9556L66.3047 25.5645L63.2434 18.1733C63.4796 18.0755 63.7364 18.0234 64 18.0234V26.0234ZM66.3047 25.5645L69.3662 32.9555C71.0674 32.2508 72.6134 31.2179 73.9156 29.9156L68.2588 24.2588L62.6019 18.6019C62.7856 18.4183 63.0035 18.2727 63.2432 18.1734L66.3047 25.5645ZM68.2588 24.2588L73.9156 29.9156C75.2179 28.6134 76.2508 27.0674 76.9555 25.3662L69.5645 22.3047L62.1734 19.2432C62.2727 19.0035 62.4183 18.7856 62.6019 18.6019L68.2588 24.2588ZM69.5645 22.3047L76.9556 25.3659C77.5721 23.8775 77.9269 22.2954 78.006 20.6889L70.0156 20.2959L62.0253 19.9029C62.0364 19.6761 62.0865 19.453 62.1733 19.2434L69.5645 22.3047ZM70.0156 20.2959L78.0128 20.507L78.0207 20.2111L70.0234 20L62.0262 19.7889L62.0184 20.0848L70.0156 20.2959ZM70.0234 20V28H75V20V12H70.0234V20ZM75 20H83V16H75H67V20H75ZM75 16V24H78V16V8H75V16ZM78 16H70V20H78H86V16H78ZM78 20H70C70 20.7884 69.8448 21.5686 69.5435 22.2961L76.9346 25.3574L84.3257 28.4188C85.4314 25.7492 86 22.8884 86 20H78ZM76.9346 25.3574L69.5435 22.296C69.2423 23.0232 68.8002 23.6849 68.2426 24.2426L73.8994 29.8994L79.5563 35.5563C81.5986 33.5139 83.2197 31.0887 84.3256 28.4189L76.9346 25.3574ZM73.8994 29.8994L68.2426 24.2426C67.6849 24.8002 67.0232 25.2423 66.296 25.5435L69.3574 32.9346L72.4189 40.3256C75.0887 39.2197 77.5139 37.5986 79.5563 35.5563L73.8994 29.8994ZM69.3574 32.9346L66.2961 25.5435C65.5686 25.8448 64.7884 26 64 26V34V42C66.8884 42 69.7492 41.4314 72.4188 40.3257L69.3574 32.9346ZM64 34V26C63.2116 26 62.4314 25.8448 61.7039 25.5435L58.6426 32.9346L55.5812 40.3257C58.2508 41.4314 61.1116 42 64 42V34ZM58.6426 32.9346L61.704 25.5435C60.9768 25.2423 60.3151 24.8002 59.7574 24.2426L54.1006 29.8994L48.4437 35.5563C50.4861 37.5986 52.9113 39.2197 55.5811 40.3256L58.6426 32.9346ZM54.1006 29.8994L59.7574 24.2426C59.1998 23.6849 58.7577 23.0232 58.4565 22.296L51.0654 25.3574L43.6744 28.4189C44.7803 31.0887 46.4014 33.5139 48.4437 35.5563L54.1006 29.8994ZM51.0654 25.3574L58.4565 22.2961C58.1552 21.5686 58 20.7884 58 20H50H42C42 22.8884 42.5686 25.7492 43.6743 28.4188L51.0654 25.3574ZM50 20H58V16L50 16L42 16V20H50ZM50 16V24H53V16V8H50V16ZM53 16H45V20H53H61V16H53Z" fill="url(#paint0_linear_7_99)" mask="url(#path-1-inside-1_7_99)"/>
<mask id="path-3-inside-2_7_99" fill="white">
<path d="M78 20C78 18.1615 77.6379 16.341 76.9343 14.6424C76.2307 12.9439 75.1995 11.4005 73.8995 10.1005C72.5995 8.80048 71.0561 7.76925 69.3576 7.06569C67.659 6.36212 65.8385 6 64 6C62.1615 6 60.341 6.36212 58.6424 7.06569C56.9439 7.76925 55.4005 8.80049 54.1005 10.1005C52.8005 11.4005 51.7693 12.9439 51.0657 14.6424C50.3621 16.341 50 18.1615 50 20H57.9768C57.9768 19.209 58.1326 18.4258 58.4353 17.695C58.738 16.9643 59.1817 16.3003 59.741 15.741C60.3003 15.1817 60.9643 14.738 61.695 14.4353C62.4258 14.1326 63.209 13.9768 64 13.9768C64.791 13.9768 65.5742 14.1326 66.305 14.4353C67.0357 14.738 67.6997 15.1817 68.259 15.741C68.8183 16.3003 69.262 16.9643 69.5647 17.695C69.8674 18.4258 70.0232 19.209 70.0232 20H78Z"/>
</mask>
<path d="M78 20C78 18.1615 77.6379 16.341 76.9343 14.6424C76.2307 12.9439 75.1995 11.4005 73.8995 10.1005C72.5995 8.80048 71.0561 7.76925 69.3576 7.06569C67.659 6.36212 65.8385 6 64 6C62.1615 6 60.341 6.36212 58.6424 7.06569C56.9439 7.76925 55.4005 8.80049 54.1005 10.1005C52.8005 11.4005 51.7693 12.9439 51.0657 14.6424C50.3621 16.341 50 18.1615 50 20H57.9768C57.9768 19.209 58.1326 18.4258 58.4353 17.695C58.738 16.9643 59.1817 16.3003 59.741 15.741C60.3003 15.1817 60.9643 14.738 61.695 14.4353C62.4258 14.1326 63.209 13.9768 64 13.9768C64.791 13.9768 65.5742 14.1326 66.305 14.4353C67.0357 14.738 67.6997 15.1817 68.259 15.741C68.8183 16.3003 69.262 16.9643 69.5647 17.695C69.8674 18.4258 70.0232 19.209 70.0232 20H78Z" stroke="url(#paint1_linear_7_99)" stroke-width="16" mask="url(#path-3-inside-2_7_99)"/>
<circle cx="64" cy="16" r="10" stroke="url(#paint2_linear_7_99)" stroke-width="8"/>
<circle cx="64" cy="16" r="10" stroke="url(#paint3_linear_7_99)" stroke-width="8"/>
<path d="M64 26V108H16L22.2617 50.9453C23.8199 36.7489 35.8131 26.0001 50.0947 26H64Z" fill="url(#paint4_linear_7_99)"/>
<path d="M64 26V108H112L105.738 50.9453C104.18 36.7489 92.1869 26.0001 77.9053 26H64Z" fill="url(#paint5_linear_7_99)"/>
<path d="M100 98H28C22.4772 98 18 102.477 18 108C18 113.523 22.4772 118 28 118H100C105.523 118 110 113.523 110 108C110 102.477 105.523 98 100 98Z" fill="url(#paint6_linear_7_99)" stroke="#FF7800" stroke-width="4"/>
<path opacity="0.5" d="M20 108C20 103.582 23.5817 100 28 100H56C60.4183 100 64 103.582 64 108C64 112.418 60.4183 116 56 116H28C23.5817 116 20 112.418 20 108Z" fill="url(#paint7_linear_7_99)"/>
<path opacity="0.5" d="M108 108C108 103.582 104.418 100 100 100H72C67.5817 100 64 103.582 64 108C64 112.418 67.5817 116 72 116H100C104.418 116 108 112.418 108 108Z" fill="url(#paint8_linear_7_99)"/>
<path d="M76.6514 100C75.297 105.733 70.1471 110 64 110C57.8529 110 52.703 105.733 51.3486 100H76.6514Z" fill="url(#paint9_linear_7_99)"/>
<path opacity="0.7" d="M76.6514 100C76.4885 100.69 76.2708 101.358 76.0029 102H51.9971C51.7292 101.358 51.5115 100.69 51.3486 100H76.6514Z" fill="#BC2F2F"/>
<path d="M77.8398 26C92.149 26.0001 104.156 36.7889 105.681 51.0166L112 110H16L22.3193 51.0166C23.844 36.7889 35.851 26.0001 50.1602 26H77.8398Z" fill="url(#paint10_linear_7_99)"/>
<circle cx="3" cy="3" r="2.5" transform="matrix(1 0 0 -1 69 88)" stroke="#FFDB0F"/>
<circle cx="6" cy="6" r="5.5" transform="matrix(1 0 0 -1 66 91)" stroke="url(#paint11_linear_7_99)"/>
<circle cx="3" cy="3" r="2.5" transform="matrix(1 0 0 -1 61 76)" stroke="#FFDB0F"/>
<path d="M109 84L108.611 79.3356C108.266 75.1893 104.8 72 100.639 72H81.6041C80.2869 72 79.0542 72.6485 78.308 73.7339L74 80" stroke="url(#paint12_linear_7_99)" stroke-width="2"/>
<path d="M77 84H99" stroke="url(#paint13_linear_7_99)" stroke-width="2"/>
<circle cx="6" cy="6" r="5.5" transform="matrix(1 0 0 -1 58 79)" stroke="url(#paint14_linear_7_99)"/>
<circle cx="5" cy="5" r="4" transform="matrix(1 0 0 -1 59 78)" stroke="#FF8800" stroke-width="2"/>
<circle cx="5" cy="5" r="4" transform="matrix(1 0 0 -1 67 90)" stroke="#FF8800" stroke-width="2"/>
<path d="M66 76L70 82" stroke="#FF8800" stroke-width="2"/>
<path d="M109 85L108.917 84.0035C108.399 77.7839 103.199 73 96.9584 73H82.1407C80.8033 73 79.5544 73.6684 78.8125 74.7812L74 82" stroke="url(#paint15_linear_7_99)" stroke-width="2"/>
<path d="M110 97L109.917 96.0035C109.399 89.7839 104.199 85 97.9584 85H75" stroke="url(#paint16_linear_7_99)" stroke-width="2"/>
<circle cx="6" cy="6" r="5.5" transform="matrix(1 0 0 -1 50 91)" stroke="url(#paint17_linear_7_99)"/>
<circle cx="3" cy="3" r="2.5" transform="matrix(1 0 0 -1 53 88)" stroke="#FFDB0F"/>
<path d="M19 84L19.3887 79.3356C19.7342 75.1893 23.2004 72 27.3611 72H47.6906C49.1197 72 50.4402 72.7624 51.1547 74L54.5 79.7942" stroke="url(#paint18_linear_7_99)" stroke-width="2"/>
<path d="M51 84H29" stroke="url(#paint19_linear_7_99)" stroke-width="2"/>
<circle cx="5" cy="5" r="4" transform="matrix(1 0 0 -1 51 90)" stroke="#FF8800" stroke-width="2"/>
<path d="M19 85L19.083 84.0035C19.6013 77.7839 24.8005 73 31.0416 73H46.9737C48.4028 73 49.7233 73.7624 50.4378 75L54.4793 82" stroke="url(#paint20_linear_7_99)" stroke-width="2"/>
<path d="M18 97L18.083 96.0035C18.6013 89.7839 23.8005 85 30.0416 85H51.5" stroke="url(#paint21_linear_7_99)" stroke-width="2"/>
<defs>
<linearGradient id="paint0_linear_7_99" x1="50" y1="23.9821" x2="78" y2="23.9821" gradientUnits="userSpaceOnUse">
<stop offset="0.197115" stop-color="#FF7800"/>
<stop offset="0.5" stop-color="#B62933"/>
<stop offset="0.798077" stop-color="#FF7800"/>
</linearGradient>
<linearGradient id="paint1_linear_7_99" x1="50" y1="22.5" x2="78" y2="22.5" gradientUnits="userSpaceOnUse">
<stop offset="0.197115" stop-color="#FF7800"/>
<stop offset="0.5" stop-color="#CF2431"/>
<stop offset="0.798077" stop-color="#FF7800"/>
</linearGradient>
<linearGradient id="paint2_linear_7_99" x1="64" y1="22" x2="64" y2="30" gradientUnits="userSpaceOnUse">
<stop stop-color="#F5C211"/>
<stop offset="1" stop-color="#FF8800"/>
</linearGradient>
<linearGradient id="paint3_linear_7_99" x1="64" y1="22" x2="64" y2="30" gradientUnits="userSpaceOnUse">
<stop stop-color="#FF8800" stop-opacity="0"/>
<stop offset="1" stop-color="#FF8800"/>
</linearGradient>
<linearGradient id="paint4_linear_7_99" x1="19" y1="73.2391" x2="153.593" y2="90.2735" gradientUnits="userSpaceOnUse">
<stop stop-color="#F6BB0F"/>
<stop offset="0.0786415" stop-color="#EFD661"/>
<stop offset="0.163679" stop-color="#F6BB0F"/>
</linearGradient>
<linearGradient id="paint5_linear_7_99" x1="109" y1="73.2391" x2="-25.593" y2="90.2735" gradientUnits="userSpaceOnUse">
<stop stop-color="#F6BB0F"/>
<stop offset="0.0786415" stop-color="#EFD661"/>
<stop offset="0.163679" stop-color="#F6BB0F"/>
</linearGradient>
<linearGradient id="paint6_linear_7_99" x1="57.8541" y1="112" x2="57.8541" y2="92" gradientUnits="userSpaceOnUse">
<stop stop-color="#C64600"/>
<stop offset="1" stop-color="#5A0303"/>
</linearGradient>
<linearGradient id="paint7_linear_7_99" x1="20" y1="108" x2="64" y2="113" gradientUnits="userSpaceOnUse">
<stop stop-color="#5A0303"/>
<stop offset="0.299379" stop-color="#5A0303" stop-opacity="0"/>
</linearGradient>
<linearGradient id="paint8_linear_7_99" x1="108" y1="108" x2="64" y2="113" gradientUnits="userSpaceOnUse">
<stop stop-color="#5A0303"/>
<stop offset="0.299379" stop-color="#5A0303" stop-opacity="0"/>
</linearGradient>
<linearGradient id="paint9_linear_7_99" x1="77" y1="103" x2="51" y2="103" gradientUnits="userSpaceOnUse">
<stop stop-color="#E5A50A"/>
<stop offset="0.5" stop-color="#E5A50A"/>
<stop offset="1" stop-color="#E5A50A"/>
</linearGradient>
<linearGradient id="paint10_linear_7_99" x1="64" y1="16" x2="64" y2="70" gradientUnits="userSpaceOnUse">
<stop stop-color="#F6BB0F"/>
<stop offset="1" stop-color="#F6BB0F" stop-opacity="0"/>
</linearGradient>
<linearGradient id="paint11_linear_7_99" x1="6" y1="8" x2="6" y2="2" gradientUnits="userSpaceOnUse">
<stop stop-color="#FFDB0F"/>
<stop offset="1" stop-color="#FFDB0F" stop-opacity="0"/>
</linearGradient>
<linearGradient id="paint12_linear_7_99" x1="79.5" y1="79.9045" x2="105" y2="79.9045" gradientUnits="userSpaceOnUse">
<stop stop-color="#FFDB0F"/>
<stop offset="1" stop-color="#FFDB0F" stop-opacity="0"/>
</linearGradient>
<linearGradient id="paint13_linear_7_99" x1="99" y1="84.5" x2="77" y2="84.5" gradientUnits="userSpaceOnUse">
<stop stop-color="#FFDB0F" stop-opacity="0"/>
<stop offset="0.502841" stop-color="#FFDB0F"/>
</linearGradient>
<linearGradient id="paint14_linear_7_99" x1="6" y1="8" x2="6" y2="2" gradientUnits="userSpaceOnUse">
<stop stop-color="#FFDB0F"/>
<stop offset="1" stop-color="#FFDB0F" stop-opacity="0"/>
</linearGradient>
<linearGradient id="paint15_linear_7_99" x1="97" y1="73" x2="108" y2="73" gradientUnits="userSpaceOnUse">
<stop stop-color="#FF8800"/>
<stop offset="1" stop-color="#FF8800" stop-opacity="0"/>
</linearGradient>
<linearGradient id="paint16_linear_7_99" x1="97.3099" y1="85" x2="109.986" y2="85" gradientUnits="userSpaceOnUse">
<stop stop-color="#FF8800"/>
<stop offset="1" stop-color="#FF8800" stop-opacity="0"/>
</linearGradient>
<linearGradient id="paint17_linear_7_99" x1="6" y1="8" x2="6" y2="2" gradientUnits="userSpaceOnUse">
<stop stop-color="#FFDB0F"/>
<stop offset="1" stop-color="#FFDB0F" stop-opacity="0"/>
</linearGradient>
<linearGradient id="paint18_linear_7_99" x1="50" y1="79.9045" x2="24.5" y2="79.9045" gradientUnits="userSpaceOnUse">
<stop stop-color="#FFDB0F"/>
<stop offset="1" stop-color="#FFDB0F" stop-opacity="0"/>
</linearGradient>
<linearGradient id="paint19_linear_7_99" x1="28.5" y1="84" x2="51" y2="84" gradientUnits="userSpaceOnUse">
<stop stop-color="#FFDB0F" stop-opacity="0"/>
<stop offset="0.497159" stop-color="#FFDB0F"/>
</linearGradient>
<linearGradient id="paint20_linear_7_99" x1="31.2831" y1="73" x2="18.7831" y2="73" gradientUnits="userSpaceOnUse">
<stop stop-color="#FF8800"/>
<stop offset="1" stop-color="#FF8800" stop-opacity="0"/>
</linearGradient>
<linearGradient id="paint21_linear_7_99" x1="30.5" y1="85" x2="18" y2="85" gradientUnits="userSpaceOnUse">
<stop stop-color="#FF8800"/>
<stop offset="1" stop-color="#FF8800" stop-opacity="0"/>
</linearGradient>
</defs>
</svg>
