<svg width="128" height="128" viewBox="0 0 128 128" fill="none" xmlns="http://www.w3.org/2000/svg">
<path d="M114.372 81.7665C115.705 80.4326 115.44 75.6097 112.948 70.6965C119.276 70.0146 124.128 66.2177 124.128 64.2283C124.127 62.3876 119.974 59.0022 114.341 57.9658C120.043 51.7934 121.187 43.5064 119.372 41.6906C117.493 39.8127 108.692 41.1011 102.468 47.3247C98.9809 50.8118 97.044 55.1087 96.3443 58.5431C94.2047 58.2681 92.5358 58.5264 91.8338 59.2281C89.9555 61.1064 91.2448 69.9087 97.4685 76.1324C103.692 82.3559 112.494 83.6446 114.372 81.7665Z" fill="url(#paint0_linear_4030_294)"/>
<path d="M49.8343 35.8877C47.5341 37.2157 39.3653 33.6923 34.9644 26.0698C30.5638 18.4474 31.597 9.6121 33.8973 8.284C36.0229 7.05748 43.154 9.97245 47.698 16.4335C50.2119 12.0012 54.0065 9.39339 55.639 9.83031C57.7555 10.3974 60.4653 17.2168 58.5863 24.2302C57.1323 29.6566 53.3568 33.6088 50.7424 34.8571C50.4744 35.3411 50.1688 35.6945 49.8343 35.8877Z" fill="url(#paint1_linear_4030_294)"/>
<path d="M42.6275 16.8375C43.0375 17.1965 43.2509 17.6692 43.162 18.1937C43.0765 18.7157 42.6959 19.2465 42.1625 19.6275C41.6291 20.0084 41.0035 20.1963 40.482 20.1079C39.9571 20.0219 39.5791 19.6668 39.3725 19.1625C39.3725 19.1625 39.3725 19.1625 39.3725 19.1625C39.3163 19.0264 39.2601 18.8904 39.2039 18.7544C38.1921 16.3056 37.1803 13.8569 36.1686 11.4081C36.1124 11.2721 36.0561 11.136 35.9999 11C36.1104 11.0973 36.2209 11.1946 36.3313 11.2919C38.3196 13.0431 40.3078 14.7944 42.2961 16.5456C42.4065 16.6429 42.517 16.7402 42.6275 16.8375Z" fill="#6D8C17"/>
<path d="M101.199 52.5367C101.199 60.4636 94.0224 66.8897 94.0224 66.8897C94.0224 66.8897 86.8459 60.4636 86.8459 52.5367C86.8459 44.6097 94.0224 38.1837 94.0224 38.1837C94.0224 38.1837 101.199 44.6097 101.199 52.5367Z" fill="#AC2F24"/>
<path d="M78.8354 61.6344C73.2302 56.0292 73.7609 46.4107 73.7609 46.4107C73.7609 46.4107 83.3794 45.8801 88.9846 51.4853C94.5898 57.0905 94.0591 66.709 94.0591 66.709C94.0591 66.709 84.4406 67.2396 78.8354 61.6344Z" fill="#AC2F24"/>
<path d="M20 94H108V108C108 112.418 104.418 116 100 116H27C23.134 116 20 112.866 20 109V94Z" fill="#E28364"/>
<path d="M22 109C22 106.239 24.2386 104 27 104H102V102H106V106V108C106 111.314 103.314 114 100 114H27C24.2386 114 22 111.761 22 109Z" fill="url(#paint2_linear_4030_294)"/>
<path d="M20 94H108V98C108 101.314 105.314 104 102 104H20V94Z" fill="#E28364"/>
<path opacity="0.1" d="M95 110H33V112H95V110Z" fill="url(#paint3_linear_4030_294)"/>
<path d="M109.414 55.4142C109.106 55.8565 108.657 56.1261 108.125 56.125C107.596 56.1261 107.028 55.8565 106.586 55.4142C106.143 54.9719 105.874 54.4043 105.875 53.875C105.874 53.3434 106.143 52.8936 106.586 52.5858C106.586 52.5858 106.586 52.5858 106.586 52.5858C106.743 52.476 106.9 52.3663 107.056 52.2565C109.881 50.2808 112.705 48.305 115.529 46.3293C115.686 46.2195 115.843 46.1098 116 46C115.89 46.1569 115.78 46.3138 115.671 46.4707C113.695 49.295 111.719 52.1192 109.744 54.9435C109.634 55.1004 109.524 55.2573 109.414 55.4142Z" fill="#70A01C"/>
<path d="M108 66C107.47 66.0896 106.961 65.9575 106.586 65.5809C106.211 65.2073 106 64.6201 106 64C106 63.3799 106.211 62.7927 106.586 62.4191C106.961 62.0425 107.47 61.9104 108 62C108.2 62.0333 108.4 62.0667 108.6 62.1C112.2 62.7 115.8 63.3 119.4 63.9C119.6 63.9333 119.8 63.9667 120 64C119.8 64.0333 119.6 64.0667 119.4 64.1C115.8 64.7 112.2 65.3 108.6 65.9C108.4 65.9333 108.2 65.9667 108 66Z" fill="#70A01C"/>
<path d="M28 16H100C104.418 16 108 19.5817 108 24V94C108 98.4183 104.418 102 100 102H28V16Z" fill="#EBD0B9"/>
<path d="M20 24C20 19.5817 23.5817 16 28 16H100C104.418 16 108 19.5817 108 24V94C108 98.4183 104.418 102 100 102H20V24Z" fill="url(#paint4_linear_4030_294)"/>
<path d="M52.936 75.384C52.936 74.2794 53.8314 73.384 54.936 73.384H75.08C76.1846 73.384 77.08 74.2794 77.08 75.384V76.088C77.08 77.1926 76.1846 78.088 75.08 78.088H54.936C53.8314 78.088 52.936 77.1926 52.936 76.088V75.384ZM50.584 59.448C50.584 58.3434 51.4794 57.448 52.584 57.448H77.192C78.2966 57.448 79.192 58.3434 79.192 59.448V59.96C79.192 61.0646 78.2966 61.96 77.192 61.96H52.584C51.4794 61.96 50.584 61.0646 50.584 59.96V59.448ZM50.584 52.728C50.584 51.6234 51.4794 50.728 52.584 50.728H77.192C78.2966 50.728 79.192 51.6234 79.192 52.728V53.24C79.192 54.3446 78.2966 55.24 77.192 55.24H52.584C51.4794 55.24 50.584 54.3446 50.584 53.24V52.728ZM43 45.672C43 44.5674 43.8954 43.672 45 43.672H84.728C85.8326 43.672 86.728 44.5674 86.728 45.672V46.568C86.728 47.6726 85.8326 48.568 84.728 48.568H45C43.8954 48.568 43 47.6726 43 46.568V45.672ZM51.496 39C51.496 37.8954 52.3914 37 53.496 37H76.328C77.4326 37 78.328 37.8954 78.328 39V39.56C78.328 40.6646 77.4326 41.56 76.328 41.56H53.496C52.3914 41.56 51.496 40.6646 51.496 39.56V39ZM49.768 66.216C49.768 65.1114 50.6634 64.216 51.768 64.216H78.008C79.1126 64.216 80.008 65.1114 80.008 66.216V77.624C80.008 78.7286 79.1126 79.624 78.008 79.624H76.008C74.9034 79.624 74.008 78.7286 74.008 77.624V71.016C74.008 69.9114 73.1126 69.016 72.008 69.016H57.432C56.3274 69.016 55.432 69.9114 55.432 71.016V77.768C55.432 78.8726 54.5366 79.768 53.432 79.768H51.768C50.6634 79.768 49.768 78.8726 49.768 77.768V66.216Z" fill="#F3E2D4"/>
<path d="M53.144 74.888H77.288V79.592H53.144V74.888ZM50.792 58.952H79.4V63.464H50.792V58.952ZM50.792 52.232H79.4V56.744H50.792V52.232ZM43.208 45.176H86.936V50.072H43.208V45.176ZM51.704 38.504H78.536V43.064H51.704V38.504ZM49.976 65.72H80.216V81.128H74.216V70.52H55.64V81.272H49.976V65.72Z" fill="#E28364"/>
<path d="M80.9113 110C82.3815 115.438 82.1349 119.959 80.547 121.547L80.3898 121.692C76.9136 124.647 62.358 122.377 52.0187 112.038C51.3557 111.375 50.7254 110.694 50.1281 110H80.9113Z" fill="url(#paint5_linear_4030_294)"/>
<path opacity="0.1" d="M54 106H27V108H54V106Z" fill="url(#paint6_linear_4030_294)"/>
<path opacity="0.1" d="M102 106H58V108H102V106Z" fill="url(#paint7_linear_4030_294)"/>
<path d="M28 102H27C23.134 102 20 105.134 20 109V24C20 19.5817 23.5817 16 28 16V102Z" fill="#EBD0B9"/>
<path d="M28 102H27C23.134 102 20 105.134 20 109V24C20 19.5817 23.5817 16 28 16V102Z" fill="url(#paint8_linear_4030_294)"/>
<path d="M76.514 118.473C76.6761 118.648 76.8383 118.824 77.0004 119C76.796 118.876 76.5914 118.751 76.3871 118.627C72.7506 116.418 69.1134 114.209 65.4769 112H70.5404C72.5315 114.158 74.5231 116.315 76.514 118.473Z" fill="#298048"/>
<path opacity="0.6" d="M44 110H87V112H44V110Z" fill="url(#paint9_linear_4030_294)"/>
<path d="M112 82.541C110.891 82.6081 109.515 82.4701 108 82.1006V43.2686C109.359 42.5543 110.716 42.0118 112 41.627V82.541Z" fill="url(#paint10_linear_4030_294)"/>
<defs>
<linearGradient id="paint0_linear_4030_294" x1="129" y1="58.134" x2="118.5" y2="60.9474" gradientUnits="userSpaceOnUse">
<stop stop-color="#EDE467"/>
<stop offset="1" stop-color="#B8AF31"/>
</linearGradient>
<linearGradient id="paint1_linear_4030_294" x1="44.5" y1="2.5" x2="44.5" y2="14" gradientUnits="userSpaceOnUse">
<stop stop-color="#B3D652"/>
<stop offset="1" stop-color="#809D31"/>
</linearGradient>
<linearGradient id="paint2_linear_4030_294" x1="100" y1="107.5" x2="119.5" y2="107.5" gradientUnits="userSpaceOnUse">
<stop stop-color="#F0F0F0"/>
<stop offset="1" stop-color="#8A8A8A"/>
</linearGradient>
<linearGradient id="paint3_linear_4030_294" x1="33" y1="111" x2="95" y2="111" gradientUnits="userSpaceOnUse">
<stop stop-opacity="0"/>
<stop offset="0.109804"/>
<stop offset="0.889385" stop-opacity="0.949531"/>
<stop offset="1" stop-opacity="0"/>
</linearGradient>
<linearGradient id="paint4_linear_4030_294" x1="56" y1="258.5" x2="56" y2="44" gradientUnits="userSpaceOnUse">
<stop stop-color="#D79156"/>
<stop offset="1" stop-color="#EBD0B9"/>
</linearGradient>
<linearGradient id="paint5_linear_4030_294" x1="63" y1="112.268" x2="89" y2="127.279" gradientUnits="userSpaceOnUse">
<stop stop-color="#4A9B66"/>
<stop offset="1" stop-color="#4EE71B"/>
</linearGradient>
<linearGradient id="paint6_linear_4030_294" x1="27" y1="107" x2="54" y2="107" gradientUnits="userSpaceOnUse">
<stop stop-opacity="0"/>
<stop offset="0.184857"/>
<stop offset="0.81559" stop-opacity="0.949531"/>
<stop offset="1" stop-opacity="0"/>
</linearGradient>
<linearGradient id="paint7_linear_4030_294" x1="58" y1="107" x2="102" y2="107" gradientUnits="userSpaceOnUse">
<stop stop-opacity="0"/>
<stop offset="0.109804"/>
<stop offset="0.889385" stop-opacity="0.949531"/>
<stop offset="1" stop-opacity="0"/>
</linearGradient>
<linearGradient id="paint8_linear_4030_294" x1="20" y1="64" x2="28" y2="64" gradientUnits="userSpaceOnUse">
<stop stop-color="#E5B497" stop-opacity="0"/>
<stop offset="0.258978" stop-color="#F5E6DD"/>
<stop offset="1" stop-color="#E5B497" stop-opacity="0"/>
</linearGradient>
<linearGradient id="paint9_linear_4030_294" x1="44" y1="111" x2="87" y2="111" gradientUnits="userSpaceOnUse">
<stop stop-color="#25783F" stop-opacity="0"/>
<stop offset="0.149055" stop-color="#25783F"/>
<stop offset="0.872263" stop-color="#25783F"/>
<stop offset="1" stop-color="#25783F" stop-opacity="0"/>
</linearGradient>
<linearGradient id="paint10_linear_4030_294" x1="106" y1="61.5" x2="112" y2="61.5" gradientUnits="userSpaceOnUse">
<stop stop-color="#107124"/>
<stop offset="1" stop-color="#107124" stop-opacity="0"/>
</linearGradient>
</defs>
</svg>
