<svg width="128" height="128" viewBox="0 0 128 128" fill="none" xmlns="http://www.w3.org/2000/svg">
<path d="M114.372 81.7665C115.705 80.4326 115.44 75.6097 112.948 70.6965C119.276 70.0146 124.128 66.2177 124.128 64.2283C124.127 62.3876 119.974 59.0022 114.341 57.9658C120.043 51.7934 121.187 43.5064 119.372 41.6906C117.493 39.8127 108.692 41.1011 102.468 47.3247C98.9809 50.8118 97.044 55.1087 96.3443 58.5431C94.2047 58.2681 92.5358 58.5264 91.8338 59.2281C89.9555 61.1064 91.2448 69.9087 97.4685 76.1324C103.692 82.3559 112.494 83.6446 114.372 81.7665Z" fill="url(#paint0_linear_4055_2)"/>
<path d="M108.414 56.4142C108.099 56.849 107.643 57.1121 107.111 57.1111C106.582 57.1121 106.021 56.849 105.586 56.4142C105.151 55.9794 104.888 55.4183 104.889 54.8889C104.888 54.3575 105.151 53.9011 105.586 53.5858C105.759 53.4594 105.933 53.3329 106.106 53.2065C109.231 50.9308 112.355 48.655 115.479 46.3793C115.653 46.2529 115.826 46.1264 116 46C115.874 46.1736 115.747 46.3471 115.621 46.5207C113.345 49.645 111.069 52.7692 108.794 55.8935C108.667 56.0671 108.541 56.2406 108.414 56.4142Z" fill="#70A01C"/>
<path d="M108 66C107.47 66.0896 106.961 65.9575 106.586 65.5809C106.211 65.2073 106 64.6201 106 64C106 63.3799 106.211 62.7927 106.586 62.4191C106.961 62.0425 107.47 61.9104 108 62C108.2 62.0333 108.4 62.0667 108.6 62.1C112.2 62.7 115.8 63.3 119.4 63.9C119.6 63.9333 119.8 63.9667 120 64C119.8 64.0333 119.6 64.0667 119.4 64.1C115.8 64.7 112.2 65.3 108.6 65.9C108.4 65.9333 108.2 65.9667 108 66Z" fill="#70A01C"/>
<path d="M112 82.541C110.891 82.6081 109.515 82.4701 108 82.1006V43.2686C109.359 42.5543 110.716 42.0118 112 41.627V82.541Z" fill="url(#paint1_linear_4055_2)"/>
<path d="M49.8343 31.8877C47.5341 33.2158 39.3652 29.6923 34.9644 22.0698C30.5638 14.4474 31.597 5.61211 33.8973 4.28401C36.0229 3.05749 43.154 5.97246 47.6979 12.4335C50.2118 8.00117 54.0064 5.3934 55.6389 5.83032C57.7555 6.39744 60.4653 13.2168 58.5863 20.2302C57.1323 25.6566 53.3568 29.6088 50.7424 30.8571C50.4743 31.3411 50.1688 31.6945 49.8343 31.8877Z" fill="url(#paint2_linear_4055_2)"/>
<path d="M42.6275 12.8375C43.0375 13.1965 43.2509 13.6692 43.162 14.1937C43.0765 14.7157 42.6959 15.2465 42.1625 15.6275C41.6291 16.0084 41.0035 16.1963 40.482 16.1079C39.9571 16.0219 39.5791 15.6668 39.3725 15.1625C39.3725 15.1625 39.3725 15.1625 39.3725 15.1625C39.3163 15.0264 39.2601 14.8904 39.2039 14.7544C38.1921 12.3056 37.1803 9.85687 36.1686 7.40812C36.1124 7.27208 36.0561 7.13604 35.9999 7C36.1104 7.09729 36.2209 7.19458 36.3313 7.29188C38.3196 9.04313 40.3078 10.7944 42.2961 12.5456C42.4065 12.6429 42.517 12.7402 42.6275 12.8375Z" fill="#6D8C17"/>
<path d="M20 94H108V108C108 112.418 104.418 116 100 116H27C23.134 116 20 112.866 20 109V94Z" fill="#E28364"/>
<path d="M22 109C22 106.239 24.2386 104 27 104H102V102H106V106V108C106 111.314 103.314 114 100 114H27C24.2386 114 22 111.761 22 109Z" fill="url(#paint3_linear_4055_2)"/>
<path opacity="0.1" d="M95 110H33V112H95V110Z" fill="url(#paint4_linear_4055_2)"/>
<path opacity="0.1" d="M102 106H58V108H102V106Z" fill="url(#paint5_linear_4055_2)"/>
<path opacity="0.1" d="M54 106H27V108H54V106Z" fill="url(#paint6_linear_4055_2)"/>
<path d="M20 94H108V98C108 101.314 105.314 104 102 104H20V94Z" fill="#E28364"/>
<path d="M28 16H100C104.418 16 108 19.5817 108 24V94C108 98.4183 104.418 102 100 102H28V16Z" fill="#EBD0B9"/>
<path d="M20 20C20 15.5817 23.5817 12 28 12H100C104.418 12 108 15.5817 108 20V94C108 98.4183 104.418 102 100 102H20V20Z" fill="url(#paint7_linear_4055_2)"/>
<path d="M80.9113 110C82.3815 115.438 82.1349 119.959 80.547 121.547L80.3898 121.692C76.9136 124.647 62.358 122.377 52.0187 112.038C51.3557 111.375 50.7254 110.694 50.1281 110H80.9113Z" fill="url(#paint8_linear_4055_2)"/>
<path d="M77.0004 119C77.0004 119 67.9399 113.08 63.5 110H69.5C71.9287 113.053 77.0004 119 77.0004 119Z" fill="#34864E"/>
<path opacity="0.6" d="M44 110H87V112H44V110Z" fill="url(#paint9_linear_4055_2)"/>
<path d="M27 102C23.134 102 20 105.134 20 109V102H27Z" fill="#E6BF9E"/>
<path d="M28 102H27C23.134 102 20 105.134 20 109V20C20 15.5817 23.5817 12 28 12V102Z" fill="url(#paint10_linear_4055_2)"/>
<path d="M53.136 73.384C53.136 72.2794 54.0314 71.384 55.136 71.384H75.28C76.3846 71.384 77.28 72.2794 77.28 73.384V74.088C77.28 75.1926 76.3846 76.088 75.28 76.088H55.136C54.0314 76.088 53.136 75.1926 53.136 74.088V73.384ZM50.784 57.448C50.784 56.3434 51.6794 55.448 52.784 55.448H77.392C78.4966 55.448 79.392 56.3434 79.392 57.448V57.96C79.392 59.0646 78.4966 59.96 77.392 59.96H52.784C51.6794 59.96 50.784 59.0646 50.784 57.96V57.448ZM50.784 50.728C50.784 49.6234 51.6794 48.728 52.784 48.728H77.392C78.4966 48.728 79.392 49.6234 79.392 50.728V51.24C79.392 52.3446 78.4966 53.24 77.392 53.24H52.784C51.6794 53.24 50.784 52.3446 50.784 51.24V50.728ZM43.2 43.672C43.2 42.5674 44.0954 41.672 45.2 41.672H84.928C86.0326 41.672 86.928 42.5674 86.928 43.672V44.568C86.928 45.6726 86.0326 46.568 84.928 46.568H45.2C44.0954 46.568 43.2 45.6726 43.2 44.568V43.672ZM51.696 37C51.696 35.8954 52.5914 35 53.696 35H76.528C77.6326 35 78.528 35.8954 78.528 37V37.56C78.528 38.6646 77.6326 39.56 76.528 39.56H53.696C52.5914 39.56 51.696 38.6646 51.696 37.56V37ZM49.968 64.216C49.968 63.1114 50.8634 62.216 51.968 62.216H78.208C79.3126 62.216 80.208 63.1114 80.208 64.216V75.624C80.208 76.7286 79.3126 77.624 78.208 77.624H76.208C75.1034 77.624 74.208 76.7286 74.208 75.624V69.016C74.208 67.9114 73.3126 67.016 72.208 67.016H57.632C56.5274 67.016 55.632 67.9114 55.632 69.016V75.768C55.632 76.8726 54.7366 77.768 53.632 77.768H51.968C50.8634 77.768 49.968 76.8726 49.968 75.768V64.216Z" fill="#F3E2D4"/>
<path d="M53.136 72.888H77.28V77.592H53.136V72.888ZM50.784 56.952H79.392V61.464H50.784V56.952ZM50.784 50.232H79.392V54.744H50.784V50.232ZM43.2 43.176H86.928V48.072H43.2V43.176ZM51.696 36.504H78.528V41.064H51.696V36.504ZM49.968 63.72H80.208V79.128H74.208V68.52H55.632V79.272H49.968V63.72Z" fill="#E28364"/>
<defs>
<linearGradient id="paint0_linear_4055_2" x1="129" y1="58.134" x2="118.5" y2="63.5" gradientUnits="userSpaceOnUse">
<stop stop-color="#EDE467"/>
<stop offset="1" stop-color="#B8AF31"/>
</linearGradient>
<linearGradient id="paint1_linear_4055_2" x1="106" y1="61.5" x2="112" y2="61.5" gradientUnits="userSpaceOnUse">
<stop stop-color="#107124"/>
<stop offset="1" stop-color="#107124" stop-opacity="0"/>
</linearGradient>
<linearGradient id="paint2_linear_4055_2" x1="44.5" y1="-1.5" x2="44.5" y2="10" gradientUnits="userSpaceOnUse">
<stop stop-color="#B3D652"/>
<stop offset="1" stop-color="#809D31"/>
</linearGradient>
<linearGradient id="paint3_linear_4055_2" x1="100" y1="107.5" x2="119.5" y2="107.5" gradientUnits="userSpaceOnUse">
<stop stop-color="#F0F0F0"/>
<stop offset="1" stop-color="#8A8A8A"/>
</linearGradient>
<linearGradient id="paint4_linear_4055_2" x1="33" y1="111" x2="95" y2="111" gradientUnits="userSpaceOnUse">
<stop stop-opacity="0"/>
<stop offset="0.109804"/>
<stop offset="0.889385" stop-opacity="0.949531"/>
<stop offset="1" stop-opacity="0"/>
</linearGradient>
<linearGradient id="paint5_linear_4055_2" x1="58" y1="107" x2="102" y2="107" gradientUnits="userSpaceOnUse">
<stop stop-opacity="0"/>
<stop offset="0.109804"/>
<stop offset="0.889385" stop-opacity="0.949531"/>
<stop offset="1" stop-opacity="0"/>
</linearGradient>
<linearGradient id="paint6_linear_4055_2" x1="27" y1="107" x2="54" y2="107" gradientUnits="userSpaceOnUse">
<stop stop-opacity="0"/>
<stop offset="0.184857"/>
<stop offset="0.81559" stop-opacity="0.949531"/>
<stop offset="1" stop-opacity="0"/>
</linearGradient>
<linearGradient id="paint7_linear_4055_2" x1="56" y1="258.5" x2="56" y2="44" gradientUnits="userSpaceOnUse">
<stop stop-color="#D79156"/>
<stop offset="1" stop-color="#EBD0B9"/>
</linearGradient>
<linearGradient id="paint8_linear_4055_2" x1="63" y1="112.268" x2="89" y2="127.279" gradientUnits="userSpaceOnUse">
<stop stop-color="#4A9B66"/>
<stop offset="1" stop-color="#4EE71B"/>
</linearGradient>
<linearGradient id="paint9_linear_4055_2" x1="44" y1="111" x2="87" y2="111" gradientUnits="userSpaceOnUse">
<stop stop-color="#25783F" stop-opacity="0"/>
<stop offset="0.149055" stop-color="#25783F"/>
<stop offset="0.872263" stop-color="#25783F"/>
<stop offset="1" stop-color="#25783F" stop-opacity="0"/>
</linearGradient>
<linearGradient id="paint10_linear_4055_2" x1="20" y1="62.0645" x2="28" y2="62.0645" gradientUnits="userSpaceOnUse">
<stop stop-color="#E5B497" stop-opacity="0"/>
<stop offset="0.258978" stop-color="#F5E6DD"/>
<stop offset="1" stop-color="#E5B497" stop-opacity="0"/>
</linearGradient>
</defs>
</svg>
