<svg width="128" height="128" viewBox="0 0 128 128" fill="none" xmlns="http://www.w3.org/2000/svg">
<path d="M108 90C112.418 90 116 93.5817 116 98L116 108C116 112.418 112.418 116 108 116L25 116C17.8203 116 12 110.18 12 103C12 95.8203 17.8203 90 25 90L108 90Z" fill="#1C71D8"/>
<circle cx="25" cy="103" r="2" transform="rotate(90 25 103)" fill="#9E9E9E"/>
<path d="M108 90C112.418 90 116 93.5817 116 98L116 108C116 112.418 112.418 116 108 116L90 116L90 90L108 90Z" fill="#99C1F1"/>
<path d="M90 90L90 116L64 116L64 90L90 90Z" fill="#62A0EA"/>
<path d="M64 90L64 116L38 116L38 90L64 90Z" fill="#3584E4"/>
<path d="M90.3884 50.25C94.2148 48.0409 99.1075 49.3519 101.317 53.1782L106.317 61.8385C108.526 65.6648 107.215 70.5575 103.388 72.7667L87.8 81.7667L74.8 59.25L90.3884 50.25Z" fill="#8FF0A4"/>
<path d="M74.8 59.25L87.8 81.7667L65.2833 94.7667L52.2833 72.25L74.8 59.25Z" fill="#57E389"/>
<path d="M52.2833 72.25L65.2833 94.7667L31 114.56L18 92.0435L52.2833 72.25Z" fill="#2EC27E"/>
<path d="M52.2833 72.25L65.2833 94.7667L42.7667 107.767L29.7667 85.25L52.2833 72.25Z" fill="#33D17A"/>
<path d="M55.25 24.5782C57.4591 20.7519 62.3519 19.4409 66.1782 21.65L74.8385 26.65C78.6648 28.8592 79.9758 33.7519 77.7667 37.5782L68.7667 53.1667L46.25 40.1667L55.25 24.5782Z" fill="#FFBE6F"/>
<path d="M46.25 40.1667L68.7667 53.1667L55.7667 75.6833L33.25 62.6833L46.25 40.1667Z" fill="#FFA348"/>
<path d="M33.25 62.6833L55.7667 75.6833L36.5166 109.025L14 96.0253L33.25 62.6833Z" fill="#E66100"/>
<path d="M33.25 62.6833L55.7667 75.6833L42.7667 98.2L20.25 85.2L33.25 62.6833Z" fill="#FF7800"/>
<path d="M12 20C12 15.5817 15.5817 12 20 12H30C34.4183 12 38 15.5817 38 20V103C38 110.18 32.1797 116 25 116C17.8203 116 12 110.18 12 103V20Z" fill="#F6F5F4"/>
<circle cx="25" cy="102" r="3" fill="#C0BFBC"/>
<path d="M12 20C12 15.5817 15.5817 12 20 12H30C34.4183 12 38 15.5817 38 20V38H12V20Z" fill="#F66151"/>
<path d="M12 38H38V64H12V38Z" fill="#ED333B"/>
<path d="M12 64H38V90H12V64Z" fill="#E01B24"/>
</svg>
