<svg width="128" height="128" viewBox="0 0 128 128" fill="none" xmlns="http://www.w3.org/2000/svg">
<path d="M92 12H20C15.5817 12 12 15.5817 12 20V88C12 92.4183 15.5817 96 20 96H92C96.4183 96 100 92.4183 100 88V20C100 15.5817 96.4183 12 92 12Z" fill="url(#paint0_linear_216_1782)"/>
<path d="M12 20C12 15.5817 15.5817 12 20 12H92C96.4183 12 100 15.5817 100 20V84C100 88.4183 96.4183 92 92 92H20C15.5817 92 12 88.4183 12 84V20Z" fill="#62A0EA"/>
<path d="M76 25C76 24.4477 76.4477 24 77 24H86C88.2091 24 90 25.7909 90 28C90 30.2091 88.2091 32 86 32H77C76.4477 32 76 31.5523 76 31V25Z" fill="#3584E4"/>
<path d="M57 25C57 24.4477 57.4477 24 58 24H73C73.5523 24 74 24.4477 74 25V31C74 31.5523 73.5523 32 73 32H58C57.4477 32 57 31.5523 57 31V25Z" fill="#3584E4"/>
<path d="M38 25C38 24.4477 38.4477 24 39 24H54C54.5523 24 55 24.4477 55 25V31C55 31.5523 54.5523 32 54 32H39C38.4477 32 38 31.5523 38 31V25Z" fill="#3584E4"/>
<path d="M36 25C36 24.4477 35.5523 24 35 24H26C23.7909 24 22 25.7909 22 28C22 30.2091 23.7909 32 26 32H35C35.5523 32 36 31.5523 36 31V25Z" fill="#3584E4"/>
<path d="M90 40C90 37.7909 88.2091 36 86 36H26C23.7909 36 22 37.7909 22 40C22 42.2091 23.7909 44 26 44H86C88.2091 44 90 42.2091 90 40Z" fill="#3584E4"/>
<path d="M55 52C55 49.7909 53.2091 48 51 48H26C23.7909 48 22 49.7909 22 52C22 54.2091 23.7909 56 26 56H51C53.2091 56 55 54.2091 55 52Z" fill="#3584E4"/>
<path d="M55 64C55 61.7909 53.2091 60 51 60H26C23.7909 60 22 61.7909 22 64C22 66.2091 23.7909 68 26 68H51C53.2091 68 55 66.2091 55 64Z" fill="#3584E4"/>
<path d="M55 76C55 73.7909 53.2091 72 51 72H26C23.7909 72 22 73.7909 22 76C22 78.2091 23.7909 80 26 80H51C53.2091 80 55 78.2091 55 76Z" fill="#3584E4"/>
<path d="M112 32H40C35.5817 32 32 35.5817 32 40V108C32 112.418 35.5817 116 40 116H112C116.418 116 120 112.418 120 108V40C120 35.5817 116.418 32 112 32Z" fill="url(#paint1_linear_216_1782)"/>
<path d="M120 40C120 35.5817 116.418 32 112 32H40C35.5817 32 32 35.5817 32 40V104C32 108.418 35.5817 112 40 112H112C116.418 112 120 108.418 120 104V40Z" fill="#F6F5F4"/>
<path d="M58 66C58 56.0589 66.0589 48 76 48C85.9411 48 94 56.0589 94 66V82C94 91.9411 85.9411 100 76 100C66.0589 100 58 91.9411 58 82V66Z" fill="url(#paint2_linear_216_1782)"/>
<path d="M58 66C58 56.0589 66.0589 48 76 48C85.9411 48 94 56.0589 94 66V78C94 87.9411 85.9411 96 76 96C66.0589 96 58 87.9411 58 78V66Z" fill="#E66100"/>
<path d="M58 72C58 62.0589 66.0589 54 76 54C85.9411 54 94 62.0589 94 72V76C94 85.9411 85.9411 94 76 94C66.0589 94 58 85.9411 58 76V72Z" fill="url(#paint3_linear_216_1782)"/>
<path d="M58 66C58 56.0589 66.0589 48 76 48C85.9411 48 94 56.0589 94 66V72C94 81.9411 85.9411 90 76 90C66.0589 90 58 81.9411 58 72V66Z" fill="#E66100"/>
<path d="M58 66C58 56.0589 66.0589 48 76 48C85.9411 48 94 56.0589 94 66V70C94 79.9411 85.9411 88 76 88C66.0589 88 58 79.9411 58 70V66Z" fill="url(#paint4_linear_216_1782)"/>
<circle cx="76" cy="66" r="18" fill="#FFBE6F"/>
<defs>
<linearGradient id="paint0_linear_216_1782" x1="12" y1="44" x2="96" y2="44" gradientUnits="userSpaceOnUse">
<stop stop-color="#3584E4"/>
<stop offset="0.0416667" stop-color="#62A0EA"/>
<stop offset="0.0833333" stop-color="#3584E4"/>
<stop offset="0.916667" stop-color="#3584E4"/>
<stop offset="0.958333" stop-color="#62A0EA"/>
<stop offset="1" stop-color="#3584E4"/>
</linearGradient>
<linearGradient id="paint1_linear_216_1782" x1="32" y1="64" x2="120" y2="64" gradientUnits="userSpaceOnUse">
<stop stop-color="#BABDB6"/>
<stop offset="0.0416667" stop-color="#F6F5F4"/>
<stop offset="0.0833333" stop-color="#D5D3CF"/>
<stop offset="0.916667" stop-color="#DEDDDA"/>
<stop offset="0.958333" stop-color="#F6F5F4"/>
<stop offset="1" stop-color="#BABDB6"/>
</linearGradient>
<linearGradient id="paint2_linear_216_1782" x1="58" y1="75.2222" x2="94" y2="75.2222" gradientUnits="userSpaceOnUse">
<stop stop-color="#FF7800"/>
<stop offset="0.5" stop-color="#FFA348"/>
<stop offset="1" stop-color="#FF7800"/>
</linearGradient>
<linearGradient id="paint3_linear_216_1782" x1="58" y1="81.2222" x2="94" y2="81.2222" gradientUnits="userSpaceOnUse">
<stop stop-color="#FF7800"/>
<stop offset="0.5" stop-color="#FFA348"/>
<stop offset="1" stop-color="#FF7800"/>
</linearGradient>
<linearGradient id="paint4_linear_216_1782" x1="58" y1="75.2222" x2="94" y2="75.2222" gradientUnits="userSpaceOnUse">
<stop stop-color="#FF7800"/>
<stop offset="0.5" stop-color="#FFA348"/>
<stop offset="1" stop-color="#FF7800"/>
</linearGradient>
</defs>
</svg>
