<svg width="128" height="128" viewBox="0 0 128 128" fill="none" xmlns="http://www.w3.org/2000/svg">
<path d="M116 99.9979C116 108.834 108.837 116 100 116H28C19.1634 116 12 108.834 12 99.9979C12 94.7712 12 90.4531 12 90.4531H116C116 90.4531 116 94.7712 116 99.9979Z" fill="url(#paint0_linear_144_2)"/>
<path d="M12 28C12 19.1634 19.1634 12 28 12H100C108.837 12 116 19.1634 116 28V92C116 100.837 108.837 108 100 108H28C19.1634 108 12 100.837 12 92V28Z" fill="#E6E6E6"/>
<path d="M16 29C16 21.8203 21.8203 16 29 16H99C106.18 16 112 21.8203 112 29V91C112 98.1797 106.18 104 99 104H29C21.8203 104 16 98.1797 16 91V29Z" fill="url(#paint1_linear_144_2)"/>
<path opacity="0.2" d="M33 34H51V20H55V34H73V20H77V34H95V20H99V34H106C107.105 34 108 34.8954 108 36C108 37.1046 107.105 38 106 38H99V52H106C107.105 52 108 52.8954 108 54C108 55.1046 107.105 56 106 56H99V70H106C107.105 70 108 70.8954 108 72C108 73.1046 107.105 74 106 74H99V88H106C107.105 88 108 88.8954 108 90C108 91.1046 107.105 92 106 92H99V104H95V92H77V104H73V92H55V104H51V92H33V104H29V92H22C20.8954 92 20 91.1046 20 90C20 88.8954 20.8954 88 22 88H29V74H22C20.8954 74 20 73.1046 20 72C20 70.8954 20.8954 70 22 70H29V56H22C20.8954 56 20 55.1046 20 54C20 52.8954 20.8954 52 22 52H29V38H22C20.8954 38 20 37.1046 20 36C20 34.8954 20.8954 34 22 34H29V20H33V34ZM33 88H51V74H33V88ZM55 88H73V74H55V88ZM77 88H95V74H77V88ZM33 70H51V56H33V70ZM55 70H73V56H55V70ZM77 70H95V56H77V70ZM33 38V52H51V38H33ZM55 38V52H73V38H55ZM77 38V52H95V38H77Z" fill="url(#paint2_linear_144_2)"/>
<path d="M22 72H39.2159C40.8893 72 42.3858 70.9584 42.9669 69.3893L47.5256 57.0808C47.8687 56.1544 49.2044 56.2336 49.4356 57.1941L56.397 86.1108C56.6407 87.1229 58.076 87.1354 58.3373 86.1277L61.2232 74.9962C61.6806 73.232 63.2727 72 65.0952 72H85" stroke="url(#paint3_linear_144_2)" stroke-width="4" stroke-linecap="round"/>
<circle cx="85" cy="72" r="5" fill="white"/>
<mask id="path-7-outside-1_144_2" maskUnits="userSpaceOnUse" x="67" y="26" width="36" height="33" fill="black">
<rect fill="white" x="67" y="26" width="36" height="33"/>
<path d="M92 30C95.866 30 99 33.134 99 37C99 46.3249 88.9391 52.7751 85.875 54.5234C85.3282 54.8354 84.6718 54.8354 84.125 54.5234C81.0609 52.7751 71 46.3249 71 37C71 33.134 74.134 30 78 30C81.866 30 85 33.134 85 37C85 33.134 88.134 30 92 30Z"/>
</mask>
<path d="M92 30C95.866 30 99 33.134 99 37C99 46.3249 88.9391 52.7751 85.875 54.5234C85.3282 54.8354 84.6718 54.8354 84.125 54.5234C81.0609 52.7751 71 46.3249 71 37C71 33.134 74.134 30 78 30C81.866 30 85 33.134 85 37C85 33.134 88.134 30 92 30Z" fill="#FA4C53"/>
<path d="M85.875 54.5234L87.8573 57.9977L87.8573 57.9977L85.875 54.5234ZM84.125 54.5234L82.1427 57.9977L82.1427 57.9977L84.125 54.5234ZM92 30V34C93.6569 34 95 35.3431 95 37H99H103C103 30.9249 98.0751 26 92 26V30ZM99 37H95C95 40.1775 93.2743 43.1721 90.7113 45.8221C88.1856 48.4337 85.2678 50.2646 83.8927 51.0492L85.875 54.5234L87.8573 57.9977C89.5463 57.034 93.1911 54.7656 96.4618 51.3837C99.6953 48.0404 103 43.1474 103 37H99ZM85.875 54.5234L83.8927 51.0492C84.5745 50.6602 85.4255 50.6602 86.1073 51.0492L84.125 54.5234L82.1427 57.9977C83.9181 59.0107 86.0819 59.0106 87.8573 57.9977L85.875 54.5234ZM84.125 54.5234L86.1073 51.0492C84.7322 50.2646 81.8144 48.4337 79.2887 45.8221C76.7257 43.1721 75 40.1775 75 37H71H67C67 43.1474 70.3047 48.0404 73.5382 51.3837C76.8089 54.7656 80.4537 57.034 82.1427 57.9977L84.125 54.5234ZM71 37H75C75 35.3431 76.3431 34 78 34V30V26C71.9249 26 67 30.9249 67 37H71ZM78 30V34C79.6569 34 81 35.3431 81 37H85H89C89 30.9249 84.0751 26 78 26V30ZM85 37H89C89 35.3431 90.3431 34 92 34V30V26C85.9249 26 81 30.9249 81 37H85Z" fill="#AE0071" mask="url(#path-7-outside-1_144_2)"/>
<path d="M99 16C106.18 16 112 21.8203 112 29V31C112 31.3365 111.987 31.67 111.962 32C111.451 25.2876 105.843 20 99 20H29C22.1568 20 16.5487 25.2876 16.0381 32C16.013 31.67 16 31.3365 16 31V29C16 21.8203 21.8203 16 29 16H99Z" fill="#8A075C"/>
<defs>
<linearGradient id="paint0_linear_144_2" x1="12.2492" y1="115.663" x2="115.523" y2="115.663" gradientUnits="userSpaceOnUse">
<stop stop-color="#BABABA"/>
<stop offset="0.08" stop-color="#E8E8E8"/>
<stop offset="0.16" stop-color="#BABABA"/>
<stop offset="0.84" stop-color="#BABABA"/>
<stop offset="0.92" stop-color="#E8E8E8"/>
<stop offset="1" stop-color="#BABABA"/>
</linearGradient>
<linearGradient id="paint1_linear_144_2" x1="64" y1="36" x2="64" y2="90" gradientUnits="userSpaceOnUse">
<stop stop-color="#AE0071"/>
<stop offset="1" stop-color="#AE0071"/>
</linearGradient>
<linearGradient id="paint2_linear_144_2" x1="54" y1="90" x2="54" y2="-26.5" gradientUnits="userSpaceOnUse">
<stop stop-color="white"/>
<stop offset="1" stop-color="#999999" stop-opacity="0"/>
</linearGradient>
<linearGradient id="paint3_linear_144_2" x1="53.5" y1="54" x2="53.5" y2="90" gradientUnits="userSpaceOnUse">
<stop stop-color="#F46AA1"/>
<stop offset="1" stop-color="#F46AA1"/>
</linearGradient>
</defs>
</svg>
